General

Format                         : MPEG-4
Format profile                 : Base Media
Codec ID                       : isom
File size                      : 93.6 MiB
Duration                       : 3mn 53s
Overall bit rate mode          : Variable
Overall bit rate               : 3 361 Kbps
Encoded date                   : UTC 2012-12-09 17:11:43
Tagged date                    : UTC 2012-12-09 17:11:43

Video
ID                             : 1
Format                         : AVC
Format/Info                    : Advanced Video Codec
Format profile                 : High@L3.0
Format settings, CABAC         : Yes
Format settings, ReFrames      : 2 frames
Codec ID                       : avc1
Codec ID/Info                  : Advanced Video Coding
Duration                       : 3mn 53s
Bit rate                       : 3 167 Kbps
Maximum bit rate               : 7 430 Kbps
Width                          : 720 pixels
Height                         : 480 pixels
Display aspect ratio           : 16:9
Original display aspect ratio  : 16:9
Frame rate mode                : Constant
Frame rate                     : 23.976 fps
Standard                       : NTSC
Color space                    : YUV
Chroma subsampling             : 4:2:0
Bit depth                      : 8 bits
Scan type                      : Progressive
Bits/(Pixel*Frame)             : 0.382
Stream size                    : 88.2 MiB (94%)


Audio
ID                             : 2
Format                         : AAC
Format/Info                    : Advanced Audio Codec
Format profile                 : LC
Codec ID                       : 40
Duration                       : 3mn 53s
Bit rate mode                  : Variable
Bit rate                       : 192 Kbps
Maximum bit rate               : 249 Kbps
Channel(s)                     : 2 channels
Channel positions              : Front: L R
Sampling rate                  : 44.1 KHz
Compression mode               : Lossy
Stream size                    : 5.32 MiB (6%)